<mxfile host="app.diagrams.net" agent="Mozilla/5.0 (Windows NT 10.0; Win64; x64) AppleWebKit/537.36 (KHTML, like Gecko) Chrome/136.0.0.0 Safari/537.36 Edg/136.0.0.0" version="27.0.3">
  <diagram name="Trang-1" id="AFI89KP3DO6avNRobfvn">
    <mxGraphModel dx="1227" dy="606" grid="1" gridSize="10" guides="1" tooltips="1" connect="1" arrows="1" fold="1" page="1" pageScale="1" pageWidth="827" pageHeight="1169" math="0" shadow="0">
      <root>
        <mxCell id="0" />
        <mxCell id="1" parent="0" />
        <mxCell id="Fe16w58CxP-qqW_p3p7Q-4" style="edgeStyle=orthogonalEdgeStyle;rounded=0;orthogonalLoop=1;jettySize=auto;html=1;entryX=0;entryY=0.5;entryDx=0;entryDy=0;" edge="1" parent="1" source="Fe16w58CxP-qqW_p3p7Q-2" target="Fe16w58CxP-qqW_p3p7Q-3">
          <mxGeometry relative="1" as="geometry" />
        </mxCell>
        <mxCell id="Fe16w58CxP-qqW_p3p7Q-13" style="edgeStyle=orthogonalEdgeStyle;rounded=0;orthogonalLoop=1;jettySize=auto;html=1;" edge="1" parent="1" source="Fe16w58CxP-qqW_p3p7Q-2" target="Fe16w58CxP-qqW_p3p7Q-14">
          <mxGeometry relative="1" as="geometry">
            <mxPoint x="220" y="423" as="targetPoint" />
          </mxGeometry>
        </mxCell>
        <mxCell id="Fe16w58CxP-qqW_p3p7Q-2" value="System&amp;nbsp;" style="ellipse;whiteSpace=wrap;html=1;" vertex="1" parent="1">
          <mxGeometry x="160" y="143" width="120" height="80" as="geometry" />
        </mxCell>
        <mxCell id="Fe16w58CxP-qqW_p3p7Q-8" style="edgeStyle=orthogonalEdgeStyle;rounded=0;orthogonalLoop=1;jettySize=auto;html=1;entryX=0.5;entryY=0;entryDx=0;entryDy=0;" edge="1" parent="1" source="Fe16w58CxP-qqW_p3p7Q-3" target="Fe16w58CxP-qqW_p3p7Q-7">
          <mxGeometry relative="1" as="geometry" />
        </mxCell>
        <mxCell id="Fe16w58CxP-qqW_p3p7Q-11" style="edgeStyle=orthogonalEdgeStyle;rounded=0;orthogonalLoop=1;jettySize=auto;html=1;entryX=0.5;entryY=0;entryDx=0;entryDy=0;" edge="1" parent="1" source="Fe16w58CxP-qqW_p3p7Q-3" target="Fe16w58CxP-qqW_p3p7Q-2">
          <mxGeometry relative="1" as="geometry">
            <Array as="points">
              <mxPoint x="580" y="103" />
              <mxPoint x="220" y="103" />
            </Array>
          </mxGeometry>
        </mxCell>
        <mxCell id="Fe16w58CxP-qqW_p3p7Q-3" value="Payment System" style="ellipse;whiteSpace=wrap;html=1;" vertex="1" parent="1">
          <mxGeometry x="520" y="143" width="120" height="80" as="geometry" />
        </mxCell>
        <mxCell id="Fe16w58CxP-qqW_p3p7Q-5" value="1" style="text;html=1;align=center;verticalAlign=middle;resizable=0;points=[];autosize=1;strokeColor=none;fillColor=none;" vertex="1" parent="1">
          <mxGeometry x="275" y="151" width="30" height="30" as="geometry" />
        </mxCell>
        <mxCell id="Fe16w58CxP-qqW_p3p7Q-6" value="Yêu cầu tạo hóa đơn" style="text;html=1;align=center;verticalAlign=middle;resizable=0;points=[];autosize=1;strokeColor=none;fillColor=none;" vertex="1" parent="1">
          <mxGeometry x="315" y="151" width="140" height="30" as="geometry" />
        </mxCell>
        <mxCell id="Fe16w58CxP-qqW_p3p7Q-15" style="edgeStyle=orthogonalEdgeStyle;rounded=0;orthogonalLoop=1;jettySize=auto;html=1;entryX=1;entryY=0.5;entryDx=0;entryDy=0;exitX=1;exitY=0.5;exitDx=0;exitDy=0;" edge="1" parent="1" source="Fe16w58CxP-qqW_p3p7Q-7" target="Fe16w58CxP-qqW_p3p7Q-3">
          <mxGeometry relative="1" as="geometry">
            <Array as="points">
              <mxPoint x="720" y="483" />
              <mxPoint x="720" y="183" />
            </Array>
          </mxGeometry>
        </mxCell>
        <mxCell id="Fe16w58CxP-qqW_p3p7Q-7" value="Database" style="shape=cylinder;whiteSpace=wrap;html=1;" vertex="1" parent="1">
          <mxGeometry x="520" y="443" width="120" height="80" as="geometry" />
        </mxCell>
        <mxCell id="Fe16w58CxP-qqW_p3p7Q-9" value="2" style="text;html=1;align=center;verticalAlign=middle;resizable=0;points=[];autosize=1;strokeColor=none;fillColor=none;" vertex="1" parent="1">
          <mxGeometry x="575" y="221" width="30" height="30" as="geometry" />
        </mxCell>
        <mxCell id="Fe16w58CxP-qqW_p3p7Q-10" value="Truy vấn thông tin" style="text;html=1;align=center;verticalAlign=middle;resizable=0;points=[];autosize=1;strokeColor=none;fillColor=none;rotation=90;" vertex="1" parent="1">
          <mxGeometry x="540" y="293" width="120" height="30" as="geometry" />
        </mxCell>
        <mxCell id="Fe16w58CxP-qqW_p3p7Q-12" value="Tạo PDF" style="text;html=1;align=center;verticalAlign=middle;resizable=0;points=[];autosize=1;strokeColor=none;fillColor=none;" vertex="1" parent="1">
          <mxGeometry x="350" y="73" width="70" height="30" as="geometry" />
        </mxCell>
        <mxCell id="Fe16w58CxP-qqW_p3p7Q-14" value="Email Service" style="rounded=0;whiteSpace=wrap;html=1;" vertex="1" parent="1">
          <mxGeometry x="160" y="453" width="120" height="60" as="geometry" />
        </mxCell>
        <mxCell id="Fe16w58CxP-qqW_p3p7Q-16" value="3" style="text;html=1;align=center;verticalAlign=middle;resizable=0;points=[];autosize=1;strokeColor=none;fillColor=none;" vertex="1" parent="1">
          <mxGeometry x="640" y="443" width="30" height="30" as="geometry" />
        </mxCell>
        <mxCell id="Fe16w58CxP-qqW_p3p7Q-17" value="Trả thông tin" style="text;html=1;align=center;verticalAlign=middle;resizable=0;points=[];autosize=1;strokeColor=none;fillColor=none;rotation=90;" vertex="1" parent="1">
          <mxGeometry x="690" y="323" width="90" height="30" as="geometry" />
        </mxCell>
        <mxCell id="Fe16w58CxP-qqW_p3p7Q-18" value="4" style="text;html=1;align=center;verticalAlign=middle;resizable=0;points=[];autosize=1;strokeColor=none;fillColor=none;" vertex="1" parent="1">
          <mxGeometry x="555" y="121" width="30" height="30" as="geometry" />
        </mxCell>
        <mxCell id="Fe16w58CxP-qqW_p3p7Q-19" value="5" style="text;html=1;align=center;verticalAlign=middle;resizable=0;points=[];autosize=1;strokeColor=none;fillColor=none;" vertex="1" parent="1">
          <mxGeometry x="215" y="221" width="30" height="30" as="geometry" />
        </mxCell>
        <mxCell id="Fe16w58CxP-qqW_p3p7Q-20" value="Gửi mail hóa đơn cho khách hàng" style="text;html=1;align=center;verticalAlign=middle;resizable=0;points=[];autosize=1;strokeColor=none;fillColor=none;rotation=90;" vertex="1" parent="1">
          <mxGeometry x="130" y="333" width="200" height="30" as="geometry" />
        </mxCell>
        <mxCell id="Fe16w58CxP-qqW_p3p7Q-21" style="edgeStyle=orthogonalEdgeStyle;rounded=0;orthogonalLoop=1;jettySize=auto;html=1;entryX=0;entryY=0.625;entryDx=0;entryDy=0;entryPerimeter=0;" edge="1" parent="1" source="Fe16w58CxP-qqW_p3p7Q-14" target="Fe16w58CxP-qqW_p3p7Q-2">
          <mxGeometry relative="1" as="geometry">
            <Array as="points">
              <mxPoint x="120" y="483" />
              <mxPoint x="120" y="193" />
            </Array>
          </mxGeometry>
        </mxCell>
        <mxCell id="Fe16w58CxP-qqW_p3p7Q-22" value="6" style="text;html=1;align=center;verticalAlign=middle;resizable=0;points=[];autosize=1;strokeColor=none;fillColor=none;" vertex="1" parent="1">
          <mxGeometry x="125" y="461" width="30" height="30" as="geometry" />
        </mxCell>
        <mxCell id="Fe16w58CxP-qqW_p3p7Q-23" value="Xác nhận đã gửi" style="text;html=1;align=center;verticalAlign=middle;resizable=0;points=[];autosize=1;strokeColor=none;fillColor=none;rotation=90;" vertex="1" parent="1">
          <mxGeometry x="80" y="311" width="110" height="30" as="geometry" />
        </mxCell>
        <mxCell id="Fe16w58CxP-qqW_p3p7Q-24" value="" style="endArrow=classic;html=1;rounded=0;" edge="1" parent="1">
          <mxGeometry width="50" height="50" relative="1" as="geometry">
            <mxPoint x="350" y="150" as="sourcePoint" />
            <mxPoint x="400" y="150" as="targetPoint" />
          </mxGeometry>
        </mxCell>
        <mxCell id="Fe16w58CxP-qqW_p3p7Q-25" value="" style="endArrow=classic;html=1;rounded=0;" edge="1" parent="1">
          <mxGeometry width="50" height="50" relative="1" as="geometry">
            <mxPoint x="610" y="290" as="sourcePoint" />
            <mxPoint x="610" y="340" as="targetPoint" />
          </mxGeometry>
        </mxCell>
        <mxCell id="Fe16w58CxP-qqW_p3p7Q-26" value="" style="endArrow=classic;html=1;rounded=0;" edge="1" parent="1">
          <mxGeometry width="50" height="50" relative="1" as="geometry">
            <mxPoint x="654" y="493" as="sourcePoint" />
            <mxPoint x="694" y="493" as="targetPoint" />
          </mxGeometry>
        </mxCell>
        <mxCell id="Fe16w58CxP-qqW_p3p7Q-27" value="" style="endArrow=classic;html=1;rounded=0;entryX=0.3;entryY=0.333;entryDx=0;entryDy=0;entryPerimeter=0;" edge="1" parent="1">
          <mxGeometry width="50" height="50" relative="1" as="geometry">
            <mxPoint x="752" y="360" as="sourcePoint" />
            <mxPoint x="752.01" y="320" as="targetPoint" />
          </mxGeometry>
        </mxCell>
        <mxCell id="Fe16w58CxP-qqW_p3p7Q-29" value="" style="endArrow=classic;html=1;rounded=0;entryX=-0.011;entryY=-0.073;entryDx=0;entryDy=0;entryPerimeter=0;" edge="1" parent="1">
          <mxGeometry width="50" height="50" relative="1" as="geometry">
            <mxPoint x="398" y="70" as="sourcePoint" />
            <mxPoint x="357.23" y="70.80999999999995" as="targetPoint" />
          </mxGeometry>
        </mxCell>
        <mxCell id="Fe16w58CxP-qqW_p3p7Q-30" value="" style="endArrow=classic;html=1;rounded=0;" edge="1" parent="1">
          <mxGeometry width="50" height="50" relative="1" as="geometry">
            <mxPoint x="243" y="288" as="sourcePoint" />
            <mxPoint x="243" y="378" as="targetPoint" />
          </mxGeometry>
        </mxCell>
        <mxCell id="Fe16w58CxP-qqW_p3p7Q-31" value="" style="endArrow=classic;html=1;rounded=0;" edge="1" parent="1">
          <mxGeometry width="50" height="50" relative="1" as="geometry">
            <mxPoint x="148" y="495" as="sourcePoint" />
            <mxPoint x="118" y="495" as="targetPoint" />
          </mxGeometry>
        </mxCell>
        <mxCell id="Fe16w58CxP-qqW_p3p7Q-32" value="" style="endArrow=classic;html=1;rounded=0;" edge="1" parent="1">
          <mxGeometry width="50" height="50" relative="1" as="geometry">
            <mxPoint x="108" y="370" as="sourcePoint" />
            <mxPoint x="108" y="300" as="targetPoint" />
          </mxGeometry>
        </mxCell>
      </root>
    </mxGraphModel>
  </diagram>
</mxfile>
